<?xml version="1.0" encoding="UTF-8"?>
<svg version="1.1" xmlns="http://www.w3.org/2000/svg" width="1254" height="1254">
<path d="M0 0 C0.6614502 0.1556543 1.32290039 0.31130859 2.00439453 0.47167969 C13.39788592 3.25953765 22.39208412 8.39499669 32 15 C33.34504622 15.91407113 34.69009831 16.82813362 36.03515625 17.7421875 C38.71317237 19.57096588 41.38082055 21.41383812 44.04296875 23.265625 C47.95266384 25.97953826 51.90749316 28.62158327 55.875 31.25 C60.03947172 34.01002953 64.17233123 36.79968726 68.25 39.6875 C71.62245113 42.07562045 75.05637408 44.31291454 78.5625 46.5 C82.05734754 48.6940967 85.34232301 50.98295681 88.5625 53.5625 C92.32651353 56.57103657 96.24689175 58.9902827 100.40625 61.41015625 C104.15654537 63.70890657 107.64057786 66.33212171 111.17578125 68.9453125 C115.42830728 72.03912811 119.81368098 74.92167262 124.20410156 77.81494141 C136.97709402 86.24344948 149.69605916 94.73942397 162.12109375 103.67602539 C168.22047384 108.06292641 174.39518212 112.3045137 180.65991211 116.4519043 C187.91207926 121.25526301 195.01509329 126.22385824 201.94921875 131.4765625 C205.03812543 133.77117889 208.20413969 135.95203587 211.36328125 138.1484375 C214.09831327 140.06903776 216.80149424 142.02845418 219.5 144 C225.46022759 148.35071465 231.50451165 152.57390763 237.56640625 156.78125 C242.10655091 159.94202247 246.57432811 163.16456929 250.97265625 166.51953125 C253.99255138 168.72481112 257.14711837 170.71406762 260.3125 172.703125 C260.869375 173.13109375 261.42625 173.5590625 262 174 C262 174.66 262 175.32 262 176 C262.99 176.33 263.98 176.66 265 177 C266.6484375 178.63671875 266.6484375 178.63671875 268.375 180.6875 C268.93960938 181.35136719 269.50421875 182.01523437 270.0859375 182.69921875 C270.71757813 183.45847656 271.34921875 184.21773437 272 185 C272.80824219 185.94359375 273.61648438 186.8871875 274.44921875 187.859375 C293.49849682 210.77555543 298.31849093 237.33165331 298.26069641 266.23722839 C298.26372034 268.38621872 298.26761103 270.53520797 298.27228898 272.68419534 C298.28254606 278.5643547 298.28039302 284.44445294 298.27610838 290.32461727 C298.2736371 296.67570262 298.28266017 303.02677341 298.29014587 309.37785339 C298.30288232 321.80888245 298.3046938 334.23988925 298.30234561 346.67092367 C298.30051064 356.77350566 298.30227682 366.8760813 298.30657005 376.97866249 C298.30717246 378.43173244 298.30777366 379.88480238 298.30837366 381.33787233 C298.30928093 383.52764908 298.3101896 385.71742583 298.31110601 387.90720258 C298.31953018 408.254245 298.32387476 428.60128505 298.31969929 448.94832897 C298.31954291 449.71470592 298.31938654 450.48108286 298.31922542 451.27068335 C298.31841967 455.15472861 298.3175739 459.03877385 298.31671212 462.9228191 C298.31654103 463.69416534 298.31636994 464.46551157 298.31619367 465.26023193 C298.31584701 466.82007747 298.31549849 468.379923 298.31514808 469.93976853 C298.30978808 494.22377606 298.31773143 518.50774729 298.33618164 542.79174805 C298.35689889 570.091401 298.36762519 597.39103147 298.36360615 624.69069272 C298.36321082 627.60139008 298.36284927 630.51208744 298.36250877 633.42278481 C298.36241804 634.13944432 298.36232731 634.85610384 298.36223383 635.59448031 C298.36106827 646.40905232 298.36771273 657.22360161 298.37832069 668.03816795 C298.39036995 680.33444764 298.39165614 692.63066773 298.37953053 704.92694923 C298.37363211 711.20056368 298.37256923 717.47408029 298.38453293 723.74768829 C298.39535796 729.49085158 298.39232858 735.23383491 298.37827124 740.97698966 C298.37561508 743.05415413 298.37801958 745.13133255 298.38600711 747.20848336 C298.43979222 762.23881674 298.01800767 773.25259466 287.40625 784.72265625 C281.69828884 790.20176048 274.86040787 792.07793684 267.0625 792.375 C254.18370491 791.77783794 245.78207968 785.93848159 235.51806641 778.74853516 C231.16135019 775.72324899 226.7328376 772.80615008 222.3125 769.875 C220.52830075 768.68671589 218.74443964 767.4979239 216.9609375 766.30859375 C216.11370117 765.74382324 215.26646484 765.17905273 214.39355469 764.59716797 C212.27394899 763.18280031 210.15598878 761.76602958 208.0390625 760.34765625 C206.83866908 759.54408047 205.63815213 758.74068918 204.4375 757.9375 C203.86185303 757.55239258 203.28620605 757.16728516 202.69311523 756.77050781 C199.08305575 754.36413104 195.45202518 751.99228873 191.80859375 749.63671875 C190.90890869 749.0547876 190.00922363 748.47285645 189.08227539 747.87329102 C187.31880058 746.73448291 185.55373967 745.59812598 183.78686523 744.46459961 C179.6787917 741.81331876 175.79999083 739.08405053 172 736 C170.72959038 735.25421298 169.43730324 734.54432735 168.125 733.875 C161.10826138 730.07620277 154.60287811 725.46457379 148 721 C145.33608974 719.20419903 142.66871517 717.41364981 140 715.625 C139.40171387 715.22063721 138.80342773 714.81627441 138.18701172 714.3996582 C135.30482223 712.46707091 132.40584029 710.63108946 129.3828125 708.92578125 C122.63382158 705.08368827 116.22488959 700.78974252 111 695 C110.43539063 694.40445313 109.87078125 693.80890625 109.2890625 693.1953125 C100.0241155 683.14851343 96.52366862 671.74497829 96.62145996 658.19309998 C96.61692983 657.15116094 96.6123997 656.10922191 96.6077323 655.03570896 C96.59616976 651.56851676 96.60573079 648.10171495 96.61523438 644.63452148 C96.6111263 642.13849134 96.60566404 639.64246311 96.59895325 637.1464386 C96.58724713 631.78164167 96.58440126 626.41695184 96.58930969 621.05215263 C96.59614382 613.27720203 96.58355326 605.5023719 96.56580251 597.72744287 C96.53718864 585.08644832 96.51965081 572.44546684 96.51123047 559.80444336 C96.51072329 559.04896027 96.51021611 558.29347718 96.50969356 557.51510067 C96.50616827 552.15590061 96.50303926 546.79670035 96.5 541.4375 C96.49653298 535.32771791 96.49288277 529.21793599 96.48876953 523.1081543 C96.48801561 521.97950663 96.48801561 521.97950663 96.48724645 520.828058 C96.47847424 508.2404263 96.45797974 495.65283923 96.42928743 483.06523758 C96.41219404 475.31965891 96.40548346 467.57420717 96.41259348 459.82861216 C96.41730236 453.87859529 96.40674457 447.92866572 96.39084435 441.97866631 C96.38686631 439.55245248 96.38792423 437.12622388 96.39461708 434.70001602 C96.43631733 418.31414712 96.46464667 401.84312181 89.375 386.6875 C85.8648383 378.80414099 85.8648383 378.80414099 85 375 C84.34 375 83.68 375 83 375 C81.66796875 373.20703125 81.66796875 373.20703125 80.1875 370.8125 C77.83585731 367.01078273 75.19964025 364.11917593 72 361 C69.71596793 358.49986592 67.44408642 355.99099872 65.19335938 353.4609375 C62.88118351 350.90278548 60.55093953 348.5584517 57.875 346.37890625 C55.41633006 344.3444905 53.45779815 342.38619872 51.4375 339.9375 C49.52168682 337.68631471 47.81795039 335.85436031 45.5 334 C43.21922931 332.17538345 41.56561097 330.40477322 39.6875 328.1875 C37.28454783 325.36754963 34.82914039 322.89136238 32 320.5 C28.48103763 317.52555792 25.55532545 314.27976345 22.58203125 310.76953125 C20.95327059 308.84933743 20.95327059 308.84933743 18.5 307 C16.26198125 305.209585 14.64099058 303.50066242 12.79663086 301.32958984 C9.28497365 297.2742559 5.58067107 293.48275537 1.75390625 289.7265625 C0.4093795 288.39465814 -0.93501799 287.06262328 -2.27929688 285.73046875 C-4.37339655 283.66136069 -6.46908677 281.59390932 -8.56713867 279.52880859 C-10.61026514 277.51569682 -12.64728047 275.49656228 -14.68359375 273.4765625 C-15.63497475 272.54537094 -15.63497475 272.54537094 -16.60557556 271.59536743 C-18.10863494 270.1010939 -19.55996673 268.55510291 -21 267 C-21 266.34 -21 265.68 -21 265 C-25.53789448 267.35573757 -28.3978301 270.38759559 -31.6875 274.1875 C-33.41789515 276.17986732 -35.16765055 278.09683511 -37 280 C-37.66 280 -38.32 280 -39 280 C-39.21269531 280.53109375 -39.42539062 281.0621875 -39.64453125 281.609375 C-41.52247598 284.92148502 -44.08041823 287.50932368 -46.6875 290.25 C-47.78201327 291.41725351 -48.87576745 292.58521929 -49.96875 293.75390625 C-50.75765625 294.59526123 -50.75765625 294.59526123 -51.5625 295.45361328 C-53.86621497 297.9318284 -56.07932331 300.48461939 -58.29296875 303.04296875 C-61.09843929 306.25930912 -63.97142919 309.41476498 -66.83203125 312.58203125 C-68.64047557 314.5990169 -70.4198734 316.63491596 -72.1875 318.6875 C-75.6926613 322.71802505 -79.34752638 326.60361608 -83 330.5 C-87.76571812 335.58759252 -92.46207363 340.70730559 -97 346 C-98.58409848 347.83075368 -100.17013097 349.65981849 -101.7565918 351.48852539 C-102.91714609 352.82752648 -104.0761691 354.16785634 -105.23364258 355.50952148 C-108.02489185 358.74236536 -110.85056621 361.92596297 -113.75 365.0625 C-133.25934195 387.46211483 -140.1923902 413.75777726 -140.625 442.75 C-140.64368134 443.82675995 -140.66236267 444.9035199 -140.68161011 446.01290894 C-141.38607446 487.33399637 -141.0665905 528.67493449 -141 570 C-140.97779065 583.89220845 -140.95737706 597.78441021 -140.94658184 611.67663288 C-140.94164703 617.65113648 -140.93186819 623.62560518 -140.91815186 629.6000948 C-140.91066063 633.29902712 -140.90737132 636.9979548 -140.9051857 640.69689369 C-140.90332629 642.3979858 -140.89975092 644.09907712 -140.89425278 645.80016136 C-140.81180092 672.14677406 -140.81180092 672.14677406 -145 681.0625 C-145.30832764 681.73659912 -145.61665527 682.41069824 -145.93432617 683.10522461 C-150.98618131 693.6390134 -158.1351269 700.89740583 -168 707 C-169.83354963 708.1663267 -171.66687932 709.33299923 -173.5 710.5 C-174.428125 711.08523438 -175.35625 711.67046875 -176.3125 712.2734375 C-179.58990265 714.37897815 -182.76599887 716.60557109 -185.9453125 718.85546875 C-197.17813609 726.74142802 -208.55744206 734.4223486 -220 742 C-227.58289394 747.02475673 -235.14151878 752.07803695 -242.625 757.25 C-249.75858435 762.1797343 -256.96615601 766.99333258 -264.19262695 771.78564453 C-268.35852296 774.55323255 -272.5091316 777.33676291 -276.61328125 780.1953125 C-277.32613281 780.69160156 -278.03898437 781.18789063 -278.7734375 781.69921875 C-280.0775696 782.61111189 -281.3786671 783.52737033 -282.67578125 784.44921875 C-292.1153189 791.05275496 -302.26047651 795.43786412 -314 794 C-323.83665957 791.97943155 -330.87899504 788.81734705 -336.74609375 780.53515625 C-346.19644297 765.46445546 -344.14622917 747.217304 -344.10247803 730.04980469 C-344.10092873 727.96849977 -344.09981906 725.8871945 -344.09910703 723.80588913 C-344.09585527 718.12652332 -344.0862478 712.4471839 -344.07549977 706.76782799 C-344.06497432 700.6273269 -344.06032598 694.48682074 -344.05482483 688.34631348 C-344.04096343 674.24383306 -344.01847273 660.14137451 -343.99473595 646.0389083 C-343.98307062 639.06171524 -343.97273922 632.08452038 -343.96257466 625.10732499 C-343.92772358 601.19640082 -343.89080188 577.28548131 -343.84641647 553.37457275 C-343.84364063 551.87650291 -343.84086483 550.37843307 -343.83808906 548.88036323 C-343.83530482 547.37883107 -343.8325203 545.87729891 -343.82973552 544.37576675 C-343.82414949 541.36379243 -343.81856752 538.35181809 -343.81298828 535.33984375 C-343.81160283 534.59306136 -343.81021738 533.84627897 -343.80878994 533.07686681 C-343.76392832 508.85072764 -343.73134401 484.62459379 -343.70614339 460.39842671 C-343.67941678 434.74802692 -343.64189638 409.09766544 -343.59196877 383.44729996 C-343.5865241 380.6297837 -343.58112251 377.81226737 -343.57575226 374.99475098 C-343.57442488 374.30106591 -343.57309749 373.60738084 -343.57172989 372.89267501 C-343.55066353 361.75359588 -343.53932551 350.61452743 -343.53149996 339.47543204 C-343.52337922 328.27500192 -343.50391517 317.07463245 -343.47384754 305.87423611 C-343.45787687 299.81252224 -343.44665161 293.75090007 -343.44845009 287.68916321 C-343.44998147 282.1326765 -343.43763202 276.57639445 -343.41455176 271.01995707 C-343.40861874 269.01748075 -343.40762979 267.01498189 -343.41228315 265.01250219 C-343.44507542 248.99796902 -341.99141986 234.04347216 -336 219 C-335.63575928 218.0711499 -335.63575928 218.0711499 -335.26416016 217.12353516 C-330.86554995 206.16825493 -322.96402309 188.33752969 -311.86425781 182.96655273 C-309.6427778 182.08943839 -309.6427778 182.08943839 -309 179 C-308.34 179 -307.68 179 -307 179 C-307 178.34 -307 177.68 -307 177 C-305.3455812 175.63996177 -303.62403955 174.36098795 -301.875 173.125 C-300.44800781 172.10792969 -300.44800781 172.10792969 -298.9921875 171.0703125 C-297.02405889 169.7085525 -295.04375636 168.36419297 -293.05078125 167.0390625 C-289.75849636 164.83858527 -286.52945079 162.55826371 -283.3125 160.25 C-282.7045459 159.81461914 -282.0965918 159.37923828 -281.47021484 158.93066406 C-271.02916319 151.44999889 -271.02916319 151.44999889 -260.75 143.75 C-257.92049365 141.60782313 -255.01799477 139.88452882 -251.8984375 138.18359375 C-249.51565222 136.69803009 -247.41920141 134.97007719 -245.25 133.1875 C-241.79119924 130.3523315 -238.30548274 127.84886434 -234.5 125.5 C-230.78353559 123.20330851 -227.3736311 120.77577242 -224 118 C-219.75762192 114.51062722 -215.3261833 111.60630542 -210.66015625 108.71875 C-207.32609824 106.56458623 -204.26579275 104.14730129 -201.1640625 101.67578125 C-198.36413755 99.50760832 -195.44042215 97.57775531 -192.48046875 95.63671875 C-181.81722424 88.60065662 -171.50619871 81.05823918 -161.16308594 73.56494141 C-153.59875522 68.09232742 -146.00149346 62.67120508 -138.3125 57.375 C-134.24894611 54.57544343 -130.22994742 51.72965201 -126.25 48.8125 C-122.37505122 45.97608216 -118.44674996 43.2629031 -114.4375 40.62109375 C-106.35216597 35.24382833 -98.44159031 29.62204436 -90.6015625 23.89453125 C-86.44288987 20.86606845 -82.25034361 17.89851513 -78 15 C-77.1970752 14.44795898 -77.1970752 14.44795898 -76.37792969 13.88476562 C-68.92236976 8.79090481 -61.75492588 4.50140739 -53 2 C-51.75605469 1.64164063 -50.51210938 1.28328125 -49.23046875 0.9140625 C-32.37357102 -3.79234541 -16.94356945 -4.09534568 0 0 Z " fill="#22252C" transform="translate(651,212)"/>
<path d="M0 0 C3.95666395 1.80932874 7.51628933 4.21693179 11.125 6.625 C12.12805176 7.29269409 12.12805176 7.29269409 13.15136719 7.97387695 C17.84363317 11.13387072 22.24734389 14.53298775 26.609375 18.13671875 C29.99818653 20.77799832 33.62981547 22.96224552 37.28125 25.21875 C40.00550924 27.0036095 42.48602932 28.93154311 45 31 C49.24237808 34.48937278 53.6738167 37.39369458 58.33984375 40.28125 C61.6585537 42.42549725 64.70672884 44.82522623 67.78515625 47.296875 C70.84440397 49.6493124 74.07528884 51.69654774 77.34765625 53.73828125 C77.89292969 54.15464844 78.43820312 54.57101562 79 55 C79 55.66 79 56.32 79 57 C79.99 57.33 80.98 57.66 82 58 C83.6484375 59.63671875 83.6484375 59.63671875 85.375 61.6875 C86.22191406 62.68330078 86.22191406 62.68330078 87.0859375 63.69921875 C87.71757813 64.45847656 88.34921875 65.21773438 89 66 C89.80824219 66.94359375 90.61648438 67.8871875 91.44921875 68.859375 C110.49849682 91.77555543 115.31849093 118.33165331 115.26069641 147.23722839 C115.26372034 149.38621872 115.26761103 151.53520797 115.27228898 153.68419534 C115.28254606 159.5643547 115.28039302 165.44445294 115.27610838 171.32461727 C115.2736371 177.67570262 115.28266017 184.02677341 115.29014587 190.37785339 C115.30288232 202.80888245 115.3046938 215.23988925 115.30234561 227.67092367 C115.30051064 237.77350566 115.30227682 247.8760813 115.30657005 257.97866249 C115.30717246 259.43173244 115.30777366 260.88480238 115.30837366 262.33787233 C115.30928093 264.52764908 115.3101896 266.71742583 115.31110601 268.90720258 C115.31953018 289.254245 115.32387476 309.60128505 115.31969929 329.94832897 C115.31954291 330.71470592 115.31938654 331.48108286 115.31922542 332.27068335 C115.31841967 336.15472861 115.3175739 340.03877385 115.31671212 343.9228191 C115.31645549 345.07983845 115.31645549 345.07983845 115.31619367 346.26023193 C115.31584701 347.82007747 115.31549849 349.379923 115.31514808 350.93976853 C115.30978808 375.22377606 115.31773143 399.50774729 115.33618164 423.79174805 C115.35689889 451.091401 115.36762519 478.39103147 115.36360615 505.69069272 C115.36321082 508.60139008 115.36284927 511.51208744 115.36250877 514.42278481 C115.36241804 515.13944432 115.36232731 515.85610384 115.36223383 516.59448031 C115.36106827 527.40905232 115.36771273 538.22360161 115.37832069 549.03816795 C115.39036995 561.33444764 115.39165614 573.63066773 115.37953053 585.92694923 C115.37363211 592.20056368 115.37256923 598.47408029 115.38453293 604.74768829 C115.39535796 610.49085158 115.39232858 616.23383491 115.37827124 621.97698966 C115.37561508 624.05415413 115.37801958 626.13133255 115.38600711 628.20848336 C115.43979222 643.23881674 115.01800767 654.25259466 104.40625 665.72265625 C98.69828884 671.20176048 91.86040787 673.07793684 84.0625 673.375 C71.18370491 672.77783794 62.78207968 666.93848159 52.51806641 659.74853516 C48.16135019 656.72324899 43.7328376 653.80615008 39.3125 650.875 C37.52830075 649.68671589 35.74443964 648.4979239 33.9609375 647.30859375 C33.11370117 646.74382324 32.26646484 646.17905273 31.39355469 645.59716797 C29.27394899 644.18280031 27.15598878 642.76602958 25.0390625 641.34765625 C23.83866908 640.54408047 22.63815213 639.74068918 21.4375 638.9375 C20.57402954 638.35983887 20.57402954 638.35983887 19.69311523 637.77050781 C16.08305575 635.36413104 12.45202518 632.99228873 8.80859375 630.63671875 C7.90890869 630.0547876 7.00922363 629.47285645 6.08227539 628.87329102 C4.31880058 627.73448291 2.55373967 626.59812598 0.78686523 625.46459961 C-3.3212083 622.81331876 -7.20000917 620.08405053 -11 617 C-12.27040962 616.25421298 -13.56269676 615.54432735 -14.875 614.875 C-21.89173862 611.07620277 -28.39712189 606.46457379 -35 602 C-37.66391026 600.20419903 -40.33128483 598.41364981 -43 596.625 C-43.59828613 596.22063721 -44.19657227 595.81627441 -44.81298828 595.3996582 C-47.69517777 593.46707091 -50.59415971 591.63108946 -53.6171875 589.92578125 C-60.36617842 586.08368827 -66.77511041 581.78974252 -72 576 C-72.56460938 575.40445313 -73.12921875 574.80890625 -73.7109375 574.1953125 C-82.9758845 564.14851343 -86.47633138 552.74497829 -86.37854004 539.19309998 C-86.38533523 537.63019142 -86.38533523 537.63019142 -86.3922677 536.03570896 C-86.40383024 532.56851676 -86.39426921 529.10171495 -86.38476562 525.63452148 C-86.3888737 523.13849134 -86.39433596 520.64246311 -86.40104675 518.1464386 C-86.41275287 512.78164167 -86.41559874 507.41695184 -86.41069031 502.05215263 C-86.40385618 494.27720203 -86.41644674 486.5023719 -86.43419749 478.72744287 C-86.46281136 466.08644832 -86.48034919 453.44546684 -86.48876953 440.80444336 C-86.48927671 440.04896027 -86.48978389 439.29347718 -86.49030644 438.51510067 C-86.49383173 433.15590061 -86.49696074 427.79670035 -86.5 422.4375 C-86.50346702 416.32771791 -86.50711723 410.21793599 -86.51123047 404.1081543 C-86.51173308 403.35572252 -86.5122357 402.60329074 -86.51275355 401.828058 C-86.52152576 389.2404263 -86.54202026 376.65283923 -86.57071257 364.06523758 C-86.58780596 356.31965891 -86.59451654 348.57420717 -86.58740652 340.82861216 C-86.58269764 334.87859529 -86.59325543 328.92866572 -86.60915565 322.97866631 C-86.61313369 320.55245248 -86.61207577 318.12622388 -86.60538292 315.70001602 C-86.45500849 291.6364048 -86.45500849 291.6364048 -93.328125 268.78515625 C-93.54984375 268.19605469 -93.7715625 267.60695313 -94 267 C-93.67 266.34 -93.34 265.68 -93 265 C-92.34 265 -91.68 265 -91 265 C-90.93425781 264.31679688 -90.86851562 263.63359375 -90.80078125 262.9296875 C-88.97672471 251.51838976 -82.8827324 242.67963693 -76.87207031 233.01953125 C-73.73635723 227.96182397 -70.68393959 222.8543751 -67.625 217.75 C-66.99948242 216.70924316 -66.37396484 215.66848633 -65.72949219 214.59619141 C-58.66410314 202.81994066 -51.78703178 190.93857002 -45 179 C-44.08782715 177.39632568 -44.08782715 177.39632568 -43.15722656 175.76025391 C-24.88083602 143.516659 -6.58774939 110.68758123 4 75 C4.22445801 74.28166992 4.44891602 73.56333984 4.68017578 72.82324219 C7.8460014 62.46810114 8.36076501 52.27653974 8.375 41.5 C8.37685303 40.22326416 8.37870605 38.94652832 8.38061523 37.63110352 C8.25484506 27.145445 6.75526193 18.15672067 2.875 8.4375 C0 1.07616279 0 1.07616279 0 0 Z " fill="#FCA504" transform="translate(834,331)"/>
<path d="M0 0 C0.78753662 -0.0093457 1.57507324 -0.01869141 2.38647461 -0.02832031 C7.19494103 -0.00223369 11.57968027 0.56616403 16.24755859 1.72363281 C18.43937623 2.31600516 18.43937623 2.31600516 21.00146484 2.53759766 C23.375 3.25 23.375 3.25 24.66113281 5.18017578 C25.11504395 6.42516846 25.11504395 6.42516846 25.578125 7.6953125 C25.9184375 8.60796875 26.25875 9.520625 26.609375 10.4609375 C26.94453125 11.42257812 27.2796875 12.38421875 27.625 13.375 C27.975625 14.3134375 28.32625 15.251875 28.6875 16.21875 C36.16628527 36.75664494 33.81677416 61.7176069 27.375 82.25 C27.00544189 83.50586914 27.00544189 83.50586914 26.62841797 84.78710938 C22.27389497 99.57732674 16.08072518 113.39260241 9.375 127.25 C8.9531543 128.12543457 8.53130859 129.00086914 8.09667969 129.90283203 C1.6287332 143.2574205 -5.43065073 156.2757245 -12.625 169.25 C-13.43710937 170.72146484 -13.43710937 170.72146484 -14.265625 172.22265625 C-26.94326237 195.17865849 -40.38179917 217.67122406 -54.04223633 240.05200195 C-55.35344851 242.20223898 -56.66133143 244.35451152 -57.96508789 246.50927734 C-58.94674274 248.13011237 -59.93533499 249.74683577 -60.93920898 251.35400391 C-63.91230749 256.24171558 -64.79708788 260.99592026 -65.81640625 266.5546875 C-66.08324219 267.44414063 -66.35007812 268.33359375 -66.625 269.25 C-67.615 269.58 -68.605 269.91 -69.625 270.25 C-72.67902088 268.72298956 -73.28369481 266.29842088 -74.625 263.25 C-74.625 262.26 -74.625 261.27 -74.625 260.25 C-75.285 260.25 -75.945 260.25 -76.625 260.25 C-77.95703125 258.45703125 -77.95703125 258.45703125 -79.4375 256.0625 C-81.78914269 252.26078273 -84.42535975 249.36917593 -87.625 246.25 C-89.90903207 243.74986592 -92.18091358 241.24099872 -94.43164062 238.7109375 C-96.74381649 236.15278548 -99.07406047 233.8084517 -101.75 231.62890625 C-104.20866994 229.5944905 -106.16720185 227.63619872 -108.1875 225.1875 C-110.10331318 222.93631471 -111.80704961 221.10436031 -114.125 219.25 C-116.40577069 217.42538345 -118.05938903 215.65477322 -119.9375 213.4375 C-122.34045217 210.61754963 -124.79585961 208.14136238 -127.625 205.75 C-131.14396237 202.77555792 -134.06967455 199.52976345 -137.04296875 196.01953125 C-138.67172941 194.09933743 -138.67172941 194.09933743 -141.125 192.25 C-143.36301875 190.459585 -144.98400942 188.75066242 -146.82836914 186.57958984 C-150.34002635 182.5242559 -154.04432893 178.73275537 -157.87109375 174.9765625 C-159.2156205 173.64465814 -160.56001799 172.31262328 -161.90429688 170.98046875 C-163.99839655 168.91136069 -166.09408677 166.84390932 -168.19213867 164.77880859 C-170.23526514 162.76569682 -172.27228047 160.74656228 -174.30859375 158.7265625 C-174.94284775 158.10576813 -175.57710175 157.48497375 -176.23057556 156.84536743 C-177.73363494 155.3510939 -179.18496673 153.80510291 -180.625 152.25 C-180.625 151.59 -180.625 150.93 -180.625 150.25 C-181.615 150.25 -182.605 150.25 -183.625 150.25 C-182.25889732 147.21273042 -180.69426193 145.04084974 -178.39453125 142.640625 C-177.75580078 141.96773437 -177.11707031 141.29484375 -176.45898438 140.6015625 C-175.79189453 139.90804687 -175.12480469 139.21453125 -174.4375 138.5 C-169.94439887 133.79677375 -165.5361743 129.05380747 -161.27514648 124.13867188 C-158.82267914 121.33170526 -156.28973606 118.60283299 -153.75 115.875 C-148.65592165 110.37957485 -143.62262355 104.83342558 -138.625 99.25 C-131.69991001 91.51317785 -124.69556514 83.85377509 -117.625 76.25 C-117.02268555 75.60111816 -116.42037109 74.95223633 -115.79980469 74.28369141 C-108.12027773 66.0223821 -100.35097656 57.85033487 -92.4375 49.8125 C-91.73085205 49.08450195 -91.0242041 48.35650391 -90.29614258 47.60644531 C-89.62736084 46.93323242 -88.9585791 46.26001953 -88.26953125 45.56640625 C-87.68534424 44.97287354 -87.10115723 44.37934082 -86.49926758 43.76782227 C-84.33627692 42.01618583 -82.20434594 41.26045741 -79.625 40.25 C-78.779375 39.404375 -77.93375 38.55875 -77.0625 37.6875 C-74.625 35.25 -74.625 35.25 -72.75 34.83203125 C-69.86723819 34.04245127 -68.37487187 32.51677961 -66.1875 30.5 C-65.3934375 29.77425781 -64.599375 29.04851562 -63.78125 28.30078125 C-62.20876583 26.80521206 -60.68317862 25.25988009 -59.1875 23.6875 C-43.63770278 8.89622947 -21.21156407 0.17280297 0 0 Z " fill="#BF1312" transform="translate(810.625,326.75)"/>
<path d="M0 0 C0.33 0 0.66 0 1 0 C0.67 172.59 0.34 345.18 0 523 C-0.33 523 -0.66 523 -1 523 C-2.51504008 508.11788418 -3.28477735 493.42997896 -3.21600342 478.47567749 C-3.21417086 476.41761509 -3.21322824 474.35955173 -3.21308351 472.30148852 C-3.21014258 466.71928486 -3.19467689 461.1371795 -3.17690635 455.55500603 C-3.15990349 449.50755201 -3.15477572 443.4600855 -3.14805603 437.41261292 C-3.13389773 426.27982034 -3.11052181 415.14706627 -3.08222239 404.0143024 C-3.0561254 393.73701449 -3.03389925 383.45972714 -3.01544952 373.18242264 C-3.01421595 372.49848762 -3.01298237 371.8145526 -3.01171141 371.10989227 C-3.00670621 368.33318987 -3.001716 365.55648744 -2.9967501 362.77978497 C-2.95020985 336.79722067 -2.89183512 310.81469488 -2.82804428 284.83216785 C-2.7714599 261.75498649 -2.72534317 238.67780628 -2.68798828 215.60058594 C-2.64592212 189.63581732 -2.59745526 163.67107388 -2.53855062 137.70633757 C-2.53229288 134.94052294 -2.52605022 132.17470827 -2.51981354 129.40889359 C-2.51827223 128.72794072 -2.51673093 128.04698786 -2.51514292 127.34540006 C-2.49197956 117.06281533 -2.47370275 106.78022934 -2.45778656 96.49763107 C-2.43968095 84.81994919 -2.41428862 73.142303 -2.37985936 61.4646567 C-2.36246783 55.5055386 -2.34829614 49.54645838 -2.34270287 43.58731651 C-2.33749696 38.13781168 -2.32317594 32.68841133 -2.30144015 27.23894806 C-2.29517813 25.26312077 -2.29230412 23.28727937 -2.29307875 21.3114423 C-2.29363088 18.63470218 -2.28203694 15.95828456 -2.26729965 13.28159142 C-2.27037764 12.50714998 -2.27345563 11.73270855 -2.27662688 10.93479919 C-2.23984701 6.85226502 -1.82266143 3.67463428 0 0 Z " fill="#383A40" transform="translate(310,454)"/>
<path d="M0 0 C0.99 0.495 0.99 0.495 2 1 C-7.9807786 24.73951634 -19.49569224 47.49998864 -32 70 C-32.53850586 70.97517578 -33.07701172 71.95035156 -33.63183594 72.95507812 C-46.31207272 95.91718817 -59.7533588 118.41558748 -73.41723633 140.80200195 C-74.72844851 142.95223898 -76.03633143 145.10451152 -77.34008789 147.25927734 C-78.32174274 148.88011237 -79.31033499 150.49683577 -80.31420898 152.10400391 C-83.28730749 156.99171558 -84.17208788 161.74592026 -85.19140625 167.3046875 C-85.45824219 168.19414063 -85.72507812 169.08359375 -86 170 C-86.99 170.33 -87.98 170.66 -89 171 C-89.66 170.67 -90.32 170.34 -91 170 C-91.625 167.4375 -91.625 167.4375 -92 165 C-90.35 164.67 -88.7 164.34 -87 164 C-86.896875 162.783125 -86.79375 161.56625 -86.6875 160.3125 C-86.21569603 156.5314231 -85.17120773 154.17330361 -83 151 C-81.9849911 149.00757511 -80.98126556 147.00925805 -80 145 C-79.34 145 -78.68 145 -78 145 C-77.5978125 144.18789063 -77.5978125 144.18789063 -77.1875 143.359375 C-72.72988996 134.50280769 -67.85109422 126.0320233 -62.55273438 117.66088867 C-60.03668338 113.67986218 -57.64184942 109.67553096 -55.40234375 105.53125 C-53.35517998 101.83609088 -51.20651218 98.2021067 -49.0625 94.5625 C-48.62252686 93.81452148 -48.18255371 93.06654297 -47.72924805 92.29589844 C-45.45922729 88.44512934 -43.15670988 84.61869024 -40.8125 80.8125 C-37.80002974 75.82869651 -35.25784972 70.62586503 -32.7109375 65.39453125 C-30.92474139 61.85068554 -29.00288072 58.42398155 -27 55 C-16.62063851 37.22861425 -8.17025665 18.88919954 0 0 Z " fill="#E42111" transform="translate(830,426)"/>
<path d="M0 0 C1.77388086 1.09926403 3.54399684 2.20460502 5.3125 3.3125 C6.29863281 3.92738281 7.28476562 4.54226563 8.30078125 5.17578125 C10.50172035 6.66324661 12.23328988 8.0403386 14 10 C11.13111465 11.14755414 9.927879 10.97763336 6.9140625 10.04296875 C-11.44731357 4.54386431 -31.77619246 11.51599055 -48 20 C-55.0200989 23.93513625 -61.3938332 28.17136627 -67 34 C-68.84028836 35.76458856 -70.69463617 37.51462721 -72.5625 39.25 C-73.49191406 40.12140625 -74.42132812 40.9928125 -75.37890625 41.890625 C-77.86722626 43.89314781 -78.99663332 44.40444968 -82 45 C-84.7295585 47.47906969 -84.7295585 47.47906969 -87 50 C-87.66 49.67 -88.32 49.34 -89 49 C-82.34011603 41.78167856 -74.80678372 35.90071724 -67 30 C-66.42443359 29.55833496 -65.84886719 29.11666992 -65.25585938 28.66162109 C-45.69274349 13.7098111 -25.54270125 6.51419353 -1 5 C-0.67 3.35 -0.34 1.7 0 0 Z " fill="#7E4C4E" transform="translate(817,319)"/>
<path d="M0 0 C0.66 0.33 1.32 0.66 2 1 C-8.70881483 26.47116762 -20.16705133 53.22146536 -36 76 C-37 73 -37 73 -35.55859375 70.03125 C-34.86118589 68.84843952 -34.15346128 67.67167308 -33.4375 66.5 C-32.68406629 65.22575054 -31.93146898 63.95100619 -31.1796875 62.67578125 C-30.61846191 61.733396 -30.61846191 61.733396 -30.04589844 60.77197266 C-27.5737021 56.58355038 -25.30077694 52.28401324 -23 48 C-22.51926025 47.11417236 -22.51926025 47.11417236 -22.02880859 46.21044922 C-17.35886881 37.59922816 -12.9125731 28.90117674 -8.6875 20.0625 C-8.07503418 18.78560303 -8.07503418 18.78560303 -7.45019531 17.48291016 C-4.73202679 11.74170047 -2.29396866 5.92299712 0 0 Z " fill="#D71D0C" transform="translate(830,426)"/>
<path d="M0 0 C3.61260785 0.30105065 4.74509577 0.70868088 7.1875 3.5 C8.0846875 4.7375 8.0846875 4.7375 9 6 C9.66 6.33 10.32 6.66 11 7 C11 7.66 11 8.32 11 9 C12.67743863 10.17420704 14.35720412 11.34528576 16.05078125 12.49609375 C18.69687874 14.53767198 20.66883997 16.93881202 22.73828125 19.546875 C23.95745727 21.13796393 23.95745727 21.13796393 26 22 C26 22.66 26 23.32 26 24 C26.8353125 24.309375 26.8353125 24.309375 27.6875 24.625 C30.92501302 26.55000774 32.68231141 29.03850902 35 32 C34.01 32.33 33.02 32.66 32 33 C14.5 15.5 14.5 15.5 12.69140625 13.6875 C11.28283609 12.28218289 9.86170573 10.889469 8.4375 9.5 C5.47082718 6.45725865 2.72964252 3.25493455 0 0 Z " fill="#E63D3D" transform="translate(658,506)"/>
<path d="M0 0 C0.66 0.33 1.32 0.66 2 1 C1.5560791 1.43344727 1.1121582 1.86689453 0.65478516 2.31347656 C-1.36041732 4.28701429 -3.36774289 6.26838304 -5.375 8.25 C-6.07367187 8.93191406 -6.77234375 9.61382812 -7.4921875 10.31640625 C-8.1625 10.98027344 -8.8328125 11.64414062 -9.5234375 12.328125 C-10.14138184 12.9355957 -10.75932617 13.54306641 -11.39599609 14.16894531 C-13.02802421 16.0319911 -13.92641829 17.78351037 -15 20 C-16.83761579 22.00441476 -18.68170395 23.91729351 -20.625 25.8125 C-21.16334473 26.34367432 -21.70168945 26.87484863 -22.25634766 27.42211914 C-26.36495259 31.44786455 -30.58512128 35.31112356 -35 39 C-35.60070312 39.5053125 -36.20140625 40.010625 -36.8203125 40.53125 C-38.2085466 41.69349251 -39.60340922 42.84781261 -41 44 C-39.39017885 39.90227343 -36.42394174 37.23514706 -33.3125 34.25 C-29.98003011 31.03244287 -26.77356476 27.78496737 -23.7578125 24.265625 C-19.28515225 19.087211 -14.42115951 14.3131861 -9.5625 9.5 C-8.64017578 8.5821875 -7.71785156 7.664375 -6.76757812 6.71875 C-4.51400101 4.47684945 -2.25810925 2.237334 0 0 Z " fill="#924244" transform="translate(726,369)"/>
<path d="M0 0 C2.375 0.25 2.375 0.25 5 1 C6.0625 2.9375 6.0625 2.9375 7 5 C7.5775 5.28875 8.155 5.5775 8.75 5.875 C12.08711916 7.54355958 14.64802342 10.11490872 17 13 C17 13.66 17 14.32 17 15 C17.598125 15.268125 18.19625 15.53625 18.8125 15.8125 C20.99847854 16.99917406 22.41332594 18.09599113 24 20 C24 20.66 24 21.32 24 22 C24.66 22 25.32 22 26 22 C26 22.66 26 23.32 26 24 C26.66 24 27.32 24 28 24 C27.67 24.99 27.34 25.98 27 27 C26.55269531 26.61328125 26.10539063 26.2265625 25.64453125 25.828125 C25.03996094 25.30734375 24.43539062 24.7865625 23.8125 24.25 C23.16925781 23.69570313 22.52601563 23.14140625 21.86328125 22.5703125 C20.44622736 21.37606583 18.982542 20.2369065 17.5 19.125 C14.56061436 16.6265222 12.2027873 13.82348338 9.703125 10.89453125 C7.66848082 8.63122293 5.43111605 6.82333704 3 5 C1.1875 3.375 1.1875 3.375 0 2 C0 1.34 0 0.68 0 0 Z " fill="#EC3F41" transform="translate(691,539)"/>
<path d="M0 0 C0.66 0 1.32 0 2 0 C1.80664062 0.61746094 1.61328125 1.23492188 1.4140625 1.87109375 C-0.15817581 6.98475994 -1.48445853 12.00684277 -2.375 17.28515625 C-2.58125 17.85105469 -2.7875 18.41695312 -3 19 C-3.99 19.33 -4.98 19.66 -6 20 C-6.66 19.67 -7.32 19.34 -8 19 C-8.625 16.4375 -8.625 16.4375 -9 14 C-7.35 13.67 -5.7 13.34 -4 13 C-3.896875 11.783125 -3.79375 10.56625 -3.6875 9.3125 C-3.22572682 5.59852427 -2.34666887 3.00373615 0 0 Z " fill="#E42012" transform="translate(747,577)"/>
<path d="M0 0 C0.66 0.33 1.32 0.66 2 1 C-17.31200966 20.55718165 -17.31200966 20.55718165 -21 23 C-21.99 23 -22.98 23 -24 23 C-21.50434749 20.47483195 -19.00267549 17.95570627 -16.5 15.4375 C-15.80390625 14.73302734 -15.1078125 14.02855469 -14.390625 13.30273438 C-9.7644338 8.65512562 -4.99457142 4.24925096 0 0 Z " fill="#810605" transform="translate(736,362)"/>
<path d="M0 0 C1.32 0.66 2.64 1.32 4 2 C0.04 5.96 -3.92 9.92 -8 14 C-8.66 13.01 -9.32 12.02 -10 11 C-8.38405168 8.95880212 -6.7143618 6.95927063 -5 5 C-4.34 5 -3.68 5 -3 5 C-2.67 4.01 -2.34 3.02 -2 2 C-1.34 2 -0.68 2 0 2 C0 1.34 0 0.68 0 0 Z " fill="#383A42" transform="translate(344,389)"/>
<path d="M0 0 C-2.74677958 1.9628813 -5.49796808 3.91949114 -8.25 5.875 C-9.02730469 6.43058594 -9.80460937 6.98617187 -10.60546875 7.55859375 C-11.35957031 8.09355469 -12.11367188 8.62851562 -12.890625 9.1796875 C-13.58188477 9.67194824 -14.27314453 10.16420898 -14.98535156 10.67138672 C-16.93302581 11.9558321 -18.89254184 13.00412271 -21 14 C-20.62679493 11.46200162 -20.29953458 10.27251262 -18.37353516 8.52026367 C-17.68565918 8.07400635 -16.9977832 7.62774902 -16.2890625 7.16796875 C-15.53882813 6.68005859 -14.78859375 6.19214844 -14.015625 5.68945312 C-12.83226562 4.94598633 -12.83226562 4.94598633 -11.625 4.1875 C-10.84382813 3.67251953 -10.06265625 3.15753906 -9.2578125 2.62695312 C-3.38571841 -1.1285728 -3.38571841 -1.1285728 0 0 Z " fill="#4D4D50" transform="translate(460,934)"/>
<path d="M0 0 C0.66 0.33 1.32 0.66 2 1 C0.25792116 2.6549749 -1.49276372 4.29875421 -3.25 5.9375 C-3.74113281 6.40607422 -4.23226562 6.87464844 -4.73828125 7.35742188 C-7.4477904 9.86823368 -9.38069966 11.31358097 -13 12 C-15.7295585 14.47906969 -15.7295585 14.47906969 -18 17 C-18.66 16.67 -19.32 16.34 -20 16 C-7.52074224 3.23568305 -7.52074224 3.23568305 -1 1 C-0.67 0.67 -0.34 0.34 0 0 Z " fill="#8A3031" transform="translate(748,352)"/>
<path d="M0 0 C0 0.99 0 1.98 0 3 C-0.99 3.99 -1.98 4.98 -3 6 C-0.36 8.97 2.28 11.94 5 15 C4.01 16.485 4.01 16.485 3 18 C1.82737096 16.88121617 0.66204862 15.75476949 -0.5 14.625 C-1.47453125 13.68527344 -1.47453125 13.68527344 -2.46875 12.7265625 C-4 11 -4 11 -4 9 C-4.99 9 -5.98 9 -7 9 C-5.44499019 5.18315774 -2.96404505 2.80804268 0 0 Z " fill="#C44647" transform="translate(634,468)"/>
<path d="M0 0 C1.50539661 0.94983358 3.00420347 1.91011891 4.5 2.875 C5.3353125 3.40867187 6.170625 3.94234375 7.03125 4.4921875 C7.6809375 4.98976563 8.330625 5.48734375 9 6 C9 6.66 9 7.32 9 8 C1.74 7.67 -5.52 7.34 -13 7 C-13 6.67 -13 6.34 -13 6 C-7.06 5.505 -7.06 5.505 -1 5 C-0.67 3.35 -0.34 1.7 0 0 Z " fill="#4B4951" transform="translate(817,319)"/>
<path d="M0 0 C2 1 4 2 6 3 C6.27100264 4.62601584 6.52795798 6.25584193 6.70703125 7.89453125 C7.13349154 10.95935921 7.97237046 13.90609401 8.79296875 16.88671875 C9.04952143 19.50549233 8.34544332 20.78426993 7 23 C6.91363281 22.42894531 6.82726562 21.85789062 6.73828125 21.26953125 C5.44089524 13.7827808 2.8797026 7.01240556 0 0 Z " fill="#F4950F" transform="translate(835,335)"/>
<path d="M0 0 C-1.52452929 4.2841203 -4.38803458 5.86470292 -8.125 8.25 C-9.22070312 8.95640625 -10.31640625 9.6628125 -11.4453125 10.390625 C-12.28835938 10.92171875 -13.13140625 11.4528125 -14 12 C-14.33 11.01 -14.66 10.02 -15 9 C-12.87885041 7.49428254 -10.75346385 5.99531321 -8.625 4.5 C-8.02171875 4.07074219 -7.4184375 3.64148438 -6.796875 3.19921875 C-2.2265625 0 -2.2265625 0 0 0 Z " fill="#4B4B4E" transform="translate(414,963)"/>
<path d="M0 0 C3.61260785 0.30105065 4.74509577 0.70868088 7.1875 3.5 C8.0846875 4.7375 8.0846875 4.7375 9 6 C9.66 6.33 10.32 6.66 11 7 C11 7.66 11 8.32 11 9 C12.29233607 10.37310707 13.62437146 11.71034824 15 13 C12 13 12 13 9.75 10.9375 C8.83292001 9.95872044 7.91630833 8.97950201 7 8 C5.73165443 6.74747579 4.46075526 5.49753293 3.1875 4.25 C2.10418887 3.18747736 1.03503413 2.10960431 0 1 C0 0.67 0 0.34 0 0 Z " fill="#E14243" transform="translate(658,506)"/>
<path d="M0 0 C0.99 0.66 1.98 1.32 3 2 C-3.63633664 4.92779558 -9.86559643 5.14268807 -17 5 C-17 4.34 -17 3.68 -17 3 C-14.54256214 2.63826036 -12.08441207 2.28531831 -9.625 1.9375 C-8.57699219 1.7818457 -8.57699219 1.7818457 -7.5078125 1.62304688 C-2.2265625 0.88671875 -2.2265625 0.88671875 0 2 C0 1.34 0 0.68 0 0 Z " fill="#404245" transform="translate(354,1001)"/>
<path d="M0 0 C1.77388086 1.09926403 3.54399684 2.20460502 5.3125 3.3125 C6.29863281 3.92738281 7.28476562 4.54226563 8.30078125 5.17578125 C10.50172035 6.66324661 12.23328988 8.0403386 14 10 C9.42382495 10.46174018 7.3190923 9.21158892 3.6875 6.5 C2.80449219 5.8503125 1.92148437 5.200625 1.01171875 4.53125 C0.34785156 4.0259375 -0.31601562 3.520625 -1 3 C-0.67 2.01 -0.34 1.02 0 0 Z " fill="#FBB352" transform="translate(881,364)"/>
<path d="M0 0 C2.475 1.485 2.475 1.485 5 3 C3.4375 4.125 3.4375 4.125 1 5 C-0.65770385 4.51440998 -2.31456842 4.0255887 -3.96508789 3.51611328 C-7.57381091 2.60083548 -11.23092426 2.52745556 -14.9375 2.375 C-15.71673828 2.33632813 -16.49597656 2.29765625 -17.29882812 2.2578125 C-19.19887379 2.16455873 -21.09940278 2.08124038 -23 2 C-23 1.67 -23 1.34 -23 1 C-20.10410348 0.97293555 -17.20846205 0.95312971 -14.3125 0.9375 C-13.08756836 0.92493164 -13.08756836 0.92493164 -11.83789062 0.91210938 C-7.75500916 0.89557949 -3.98348293 0.96964902 0 2 C0 1.34 0 0.68 0 0 Z " fill="#875254" transform="translate(826,325)"/>
<path d="M0 0 C3.66398299 1.68970089 6.90832572 3.87300211 10.25 6.125 C11.86648438 7.21167969 11.86648438 7.21167969 13.515625 8.3203125 C14.33546875 8.87460937 15.1553125 9.42890625 16 10 C14 11 14 11 11.875 10.375 C4.19402985 6.70149254 4.19402985 6.70149254 1 4 C0.265625 1.8359375 0.265625 1.8359375 0 0 Z " fill="#F9B159" transform="translate(834,331)"/>
<path d="M0 0 C2.375 0.25 2.375 0.25 5 1 C6.125 3 6.125 3 7 5 C7.99 5.33 8.98 5.66 10 6 C9.67 7.32 9.34 8.64 9 10 C1.74193548 4.03225806 1.74193548 4.03225806 0 2 C0 1.34 0 0.68 0 0 Z " fill="#EC4648" transform="translate(691,539)"/>
<path d="M0 0 C0.33 0 0.66 0 1 0 C1.027193 1.58323688 1.04648306 3.16661062 1.0625 4.75 C1.07410156 5.63171875 1.08570313 6.5134375 1.09765625 7.421875 C1.00826198 9.7818838 0.66912821 11.74498524 0 14 C-0.66 14 -1.32 14 -2 14 C-2.33 15.32 -2.66 16.64 -3 18 C-2.57045059 11.74892565 -1.98598493 5.95795479 0 0 Z " fill="#4F5258" transform="translate(312,440)"/>
<path d="M0 0 C-1.47958509 3.9115468 -3.53957471 5.2274524 -7.125 7.25 C-8.49011719 8.03117188 -8.49011719 8.03117188 -9.8828125 8.828125 C-10.58148438 9.21484375 -11.28015625 9.6015625 -12 10 C-11.64880827 7.16582109 -11.21508776 6.18351911 -9.00390625 4.296875 C-8.19824219 3.78640625 -7.39257812 3.2759375 -6.5625 2.75 C-5.35787109 1.96882812 -5.35787109 1.96882812 -4.12890625 1.171875 C-2 0 -2 0 0 0 Z " fill="#404245" transform="translate(374,990)"/>
<path d="M0 0 C-1.26540052 3.79620155 -2.78218431 4.48678188 -6.0625 6.6875 C-6.98160156 7.31011719 -7.90070313 7.93273437 -8.84765625 8.57421875 C-9.55792969 9.04472656 -10.26820313 9.51523437 -11 10 C-11.66 9.67 -12.32 9.34 -13 9 C-12.67 8.34 -12.34 7.68 -12 7 C-11.01 7 -10.02 7 -9 7 C-8.773125 6.401875 -8.54625 5.80375 -8.3125 5.1875 C-6.43375091 2.05625152 -3.74574487 0 0 0 Z " fill="#505156" transform="translate(435,949)"/>
<path d="M0 0 C3.34249629 0.59687434 5.46436342 1.73603877 8 4 C8 4.66 8 5.32 8 6 C8.66 6 9.32 6 10 6 C10 6.99 10 7.98 10 9 C10.66 9.33 11.32 9.66 12 10 C9 10 9 10 6.73828125 8.06640625 C5.93777344 7.24011719 5.13726563 6.41382813 4.3125 5.5625 C3.50425781 4.73878906 2.69601562 3.91507812 1.86328125 3.06640625 C0 1 0 1 0 0 Z " fill="#D84043" transform="translate(647,495)"/>
<path d="M0 0 C3.18957907 1.06319302 4.08378632 1.85710731 6.25 4.3125 C7.06210937 5.20388672 7.06210937 5.20388672 7.890625 6.11328125 C9 8 9 8 8.671875 10.23046875 C8.45015625 10.81441406 8.2284375 11.39835938 8 12 C7.51789062 11.37351562 7.03578125 10.74703125 6.5390625 10.1015625 C5.90742187 9.28429687 5.27578125 8.46703125 4.625 7.625 C3.99851562 6.81289063 3.37203125 6.00078125 2.7265625 5.1640625 C1.03226506 2.95776805 1.03226506 2.95776805 -1 1 C-0.67 0.67 -0.34 0.34 0 0 Z " fill="#ED484B" transform="translate(724,571)"/>
<path d="M0 0 C2.3770388 2.88449652 3.68137506 5.42337774 4.75 9 C5.01296875 9.845625 5.2759375 10.69125 5.546875 11.5625 C6.02030418 14.1092225 5.83078409 15.5750086 5 18 C4.89042969 17.36191406 4.78085937 16.72382813 4.66796875 16.06640625 C4.50941406 15.24011719 4.35085938 14.41382813 4.1875 13.5625 C3.96126953 12.32693359 3.96126953 12.32693359 3.73046875 11.06640625 C3.36888672 10.04353516 3.36888672 10.04353516 3 9 C2.01 8.67 1.02 8.34 0 8 C0 5.36 0 2.72 0 0 Z " fill="#FDBB60" transform="translate(940,426)"/>
<path d="M0 0 C0.99 0.33 1.98 0.66 3 1 C3.144375 2.11375 3.28875 3.2275 3.4375 4.375 C3.78372035 7.82142047 3.78372035 7.82142047 5 10 C4.72057545 11.67654729 4.39171753 13.34608154 4 15 C3.67 15 3.34 15 3 15 C2.49564306 13.0636296 1.99666126 11.12585854 1.5 9.1875 C1.2215625 8.10855469 0.943125 7.02960937 0.65625 5.91796875 C0 3 0 3 0 0 Z " fill="#F9B24D" transform="translate(743,603)"/>
<path d="M0 0 C0.99 0.33 1.98 0.66 3 1 C-2.445 4.96 -2.445 4.96 -8 9 C-8.33 8.01 -8.66 7.02 -9 6 C-8.01 6 -7.02 6 -6 6 C-5.67 5.01 -5.34 4.02 -5 3 C-3.35 2.67 -1.7 2.34 0 2 C0 1.34 0 0.68 0 0 Z " fill="#5E5F61" transform="translate(389,979)"/>
<path d="M0 0 C0.99 0.66 1.98 1.32 3 2 C2.67 3.65 2.34 5.3 2 7 C0.68 6.67 -0.64 6.34 -2 6 C-2.33 4.35 -2.66 2.7 -3 1 C-2.01 0.67 -1.02 0.34 0 0 Z " fill="#ED4034" transform="translate(741,590)"/>
<path d="M0 0 C1.14926266 0.95421808 2.29430541 1.91352045 3.4375 2.875 C4.07558594 3.40867187 4.71367188 3.94234375 5.37109375 4.4921875 C7 6 7 6 8 8 C7.01 8.33 6.02 8.66 5 9 C2.5 6.75 2.5 6.75 0 4 C0 2.68 0 1.36 0 0 Z " fill="#E83132" transform="translate(685,530)"/>
<path d="M0 0 C0.66 0.33 1.32 0.66 2 1 C0.125 4.875 0.125 4.875 -1 6 C-2.99958364 6.04080783 -5.00045254 6.04254356 -7 6 C-4.83312509 3.72478134 -2.54379491 1.84205838 0 0 Z " fill="#4B4E53" transform="translate(516,267)"/>
<path d="M0 0 C2.31 1.98 4.62 3.96 7 6 C6.01 6.66 5.02 7.32 4 8 C2 6.25 2 6.25 0 4 C0 2.68 0 1.36 0 0 Z " fill="#E92F32" transform="translate(701,546)"/>
<path d="M0 0 C0.33 0.66 0.66 1.32 1 2 C0.22265625 4.1640625 0.22265625 4.1640625 -0.9375 6.625 C-1.31777344 7.44226563 -1.69804688 8.25953125 -2.08984375 9.1015625 C-2.39019531 9.72804688 -2.69054687 10.35453125 -3 11 C-3.33 11 -3.66 11 -4 11 C-3.38461538 3.49230769 -3.38461538 3.49230769 -1.4375 1 C-0.963125 0.67 -0.48875 0.34 0 0 Z " fill="#4D4D53" transform="translate(519,602)"/>
<path d="M0 0 C-4.455 2.97 -4.455 2.97 -9 6 C-8 2 -8 2 -5.625 0.1875 C-3 -1 -3 -1 0 0 Z " fill="#535356" transform="translate(460,934)"/>
<path d="M0 0 C0.66 0 1.32 0 2 0 C2.08159574 4.16138263 1.98248524 7.9472484 1 12 C0.67 12 0.34 12 0 12 C-1.28571429 3.42857143 -1.28571429 3.42857143 0 0 Z " fill="#5B5C5F" transform="translate(510,622)"/>
<path d="M0 0 C1.32 1.65 2.64 3.3 4 5 C3.34 6.32 2.68 7.64 2 9 C1.67 7.68 1.34 6.36 1 5 C0.34 5 -0.32 5 -1 5 C-1.33 4.01 -1.66 3.02 -2 2 C-1.34 2 -0.68 2 0 2 C0 1.34 0 0.68 0 0 Z " fill="#EB4448" transform="translate(735,582)"/>
<path d="M0 0 C0.66 0 1.32 0 2 0 C0.75023244 3.65316671 0.32901247 4.78065836 -3 7 C-3.99 6.67 -4.98 6.34 -6 6 C-5.01 5.67 -4.02 5.34 -3 5 C-2.67 4.01 -2.34 3.02 -2 2 C-1.34 2 -0.68 2 0 2 C0 1.34 0 0.68 0 0 Z " fill="#57595F" transform="translate(344,389)"/>
<path d="M0 0 C4.31392226 0.4793247 6.16569547 1.7457985 9 5 C5.7 4.01 2.4 3.02 -1 2 C-0.67 1.34 -0.34 0.68 0 0 Z " fill="#F9B562" transform="translate(862,352)"/>
<path d="M0 0 C1.65 0.33 3.3 0.66 5 1 C0.25 4.875 0.25 4.875 -2 6 C-2.33 4.68 -2.66 3.36 -3 2 C-2.01 2 -1.02 2 0 2 C0 1.34 0 0.68 0 0 Z " fill="#67686A" transform="translate(465,926)"/>
<path d="M0 0 C0.66 0.33 1.32 0.66 2 1 C0.29374499 3.78388975 -0.47626739 4.85384206 -3.6875 5.75 C-4.8321875 5.87375 -4.8321875 5.87375 -6 6 C-4 4 -2 2 0 0 Z " fill="#6C6F73" transform="translate(353,382)"/>
<path d="M0 0 C0.66 0.33 1.32 0.66 2 1 C1.1875 2.9375 1.1875 2.9375 0 5 C-0.99 5.33 -1.98 5.66 -3 6 C-3.66 5.34 -4.32 4.68 -5 4 C-3.35 2.68 -1.7 1.36 0 0 Z " fill="#52545A" transform="translate(383,361)"/>
<path d="M0 0 C0.66 0.33 1.32 0.66 2 1 C0.29374499 3.78388975 -0.47626739 4.85384206 -3.6875 5.75 C-4.8321875 5.87375 -4.8321875 5.87375 -6 6 C-4 4 -2 2 0 0 Z " fill="#5A5D61" transform="translate(486,288)"/>
<path d="M0 0 C1.32 0.33 2.64 0.66 4 1 C4 1.66 4 2.32 4 3 C4.99 3.33 5.98 3.66 7 4 C6.67 4.99 6.34 5.98 6 7 C4.02 4.69 2.04 2.38 0 0 Z " fill="#D64A50" transform="translate(640,488)"/>
<path d="M0 0 C0.99 0.66 1.98 1.32 3 2 C-0.22791555 4.1519437 -1.28400809 4.20086443 -5 4 C-3.36587557 2.29159719 -2.13093906 1.06546953 0 0 Z " fill="#41454B" transform="translate(476,296)"/>
</svg>
